<?xml version="1.0" standalone="yes"?>
<svg width="256" height="256">
<path style="fill:#ffffff; stroke:none;" d="M0 0L0 112L1 112C3.32596 57.8272 57.8271 3.32597 112 1L78 0L0 0z"/>
<path style="fill:#e4edfb; stroke:none;" d="M29 211C44.8726 201.729 70.0026 197.725 88 194C88 188.999 89.0028 182.727 87.1458 178C82.5605 166.329 70.3196 158.394 65.1397 147C62.3546 140.874 64 131.608 64 125C64 100.288 61.724 76.4214 78.4645 56C108.892 18.8818 166.992 27.6195 186.688 71C194.339 87.8534 192 106.973 192 125C192 131.608 193.645 140.874 190.86 147C184.245 161.552 162.956 173.54 168.318 191.856C169.685 196.527 178.947 197.316 183 198.371C197.645 202.184 212.878 205.56 227 211C241.027 190.38 251.221 170.872 255.246 146C257.372 132.868 256.608 118.058 254.414 105C239.543 16.5257 136.473 -26.7056 61 18.0146C48.2253 25.5841 35.861 36.0315 27.0147 48C17.3391 61.0904 9.34082 75.261 4.85957 91C0.0985413 107.722 -2.05538 126.656 0.428241 144C4.09805 169.628 14.6144 189.852 29 211z"/>
<path style="fill:#ffffff; stroke:none;" d="M144 0L144 1C198.173 3.32597 252.674 57.8271 255 112L256 112L256 0L144 0z"/>
<path style="fill:#53bdf2; stroke:none;" d="M88 194C70.6644 196.336 46.4791 201.876 31 210C38.485 224.996 56.3506 236.023 71 243.244C119.835 267.316 193.639 257.327 226 210C211.87 205.482 197.343 201.904 183 198.116C178.497 196.926 169.758 196.213 168.318 190.942C163.648 173.849 184.624 161.719 190.86 148C193.645 141.874 192 132.608 192 126C192 107.02 194.627 86.631 186.215 69C166.423 27.5174 108.089 18.8737 78.4645 55C61.7218 75.4175 64 99.2905 64 124C64 131.127 62.1413 141.404 65.1397 148C70.3196 159.394 82.5605 167.329 87.1458 179C88.9005 183.466 88 189.279 88 194z"/>
<path style="fill:#ffffff; stroke:none;" d="M144 56L144 72L160 72L160 56L144 56z"/>
<path style="fill:#40a2e7; stroke:none;" d="M112 96L112 144L144 144L144 128L128 128L128 96L112 96z"/>
<path style="fill:#ffffff; stroke:none;" d="M0 144L0 256L112 256L112 255C72.4571 251.879 33.2719 223.896 15.2585 189C7.74248 174.44 6.4429 158.352 0 144M255 144C252.632 199.143 197.875 250.748 144 255L144 256L256 256L256 178L255 144z"/>
<path style="fill:#86cef5; stroke:none;" d="M30 209L33 214L32 209L30 209z"/>
<path style="fill:#abdaf7; stroke:none;" d="M175.667 246.333L176.333 246.667L175.667 246.333z"/>
<path style="fill:#9bd5f6; stroke:none;" d="M156 252L156 253L160 253L156 252z"/>
<path style="fill:#acdaf8; stroke:none;" d="M153 253L153 254L156 254L153 253z"/>
<path style="fill:#93d2f6; stroke:none;" d="M144 254L144 255L149 255L144 254z"/>
<path style="fill:#86cef5; stroke:none;" d="M129 255L129 256L144 256L129 255z"/>
</svg>
